REM MD5 672eca099e7aa8fae28355c80b1417f5
FILE "Hyper PlayStation Re-mix 1998 No. 1 (Japan).bin" BINARY
  TRACK 01 MODE2/2352
    INDEX 01 00:00:00
  TRACK 02 AUDIO
    INDEX 00 43:44:28
    INDEX 01 43:47:28
  TRACK 03 AUDIO
    INDEX 00 46:30:34
    INDEX 01 46:33:34
  TRACK 04 AUDIO
    INDEX 00 46:38:09
    INDEX 01 46:42:09
  TRACK 05 AUDIO
    INDEX 00 49:12:64
    INDEX 01 49:17:64
REM LEADOUT 53:43:33
